<svg xmlns="http://www.w3.org/2000/svg" xmlns:xlink="http://www.w3.org/1999/xlink" width="2018" height="2018" viewBox="0 0 2018 2018">
  <defs>
    <clipPath id="clip-Custom_Size_4">
      <rect width="2018" height="2018"/>
    </clipPath>
  </defs>
  <g id="Custom_Size_4" data-name="Custom Size – 4" clip-path="url(#clip-Custom_Size_4)">
    <rect width="2018" height="2018" fill="#F7FAF7"/>
    <g id="logo" transform="translate(0 -201)">
      <path id="Subtraction_1" data-name="Subtraction 1" d="M606.5,1385.523a99.935,99.935,0,0,1-50.009-13.4l-506.5-292.5A99.981,99.981,0,0,1,0,993.022V407.978a99.98,99.98,0,0,1,49.991-86.6l506.5-292.5a99.98,99.98,0,0,1,100.019,0l506.5,292.5a99.979,99.979,0,0,1,49.991,86.6V993.022a99.98,99.98,0,0,1-49.991,86.6l-506.5,292.5a99.935,99.935,0,0,1-50.009,13.4ZM607,77.491A100.131,100.131,0,0,0,556.973,90.9l-453,261.724A100,100,0,0,0,54,439.214v523.57a100,100,0,0,0,49.974,86.587l453,261.725a100,100,0,0,0,100.053,0l453-261.725A100,100,0,0,0,1160,962.785V439.214a100,100,0,0,0-49.973-86.587L657.026,90.9A100.127,100.127,0,0,0,607,77.491Z" transform="translate(402.5 308.5)" fill="#388e3c"/>
    </g>
    <path id="Polygon_3" data-name="Polygon 3" d="M887.27,0a100,100,0,0,1,86.6,49.993l257.255,445.5a100,100,0,0,1,0,100.013l-257.255,445.5A100,100,0,0,1,887.27,1091H372.73a100,100,0,0,1-86.6-49.993L28.876,595.507a100,100,0,0,1,0-100.013l257.255-445.5A100,100,0,0,1,372.73,0Z" transform="translate(1555 179) rotate(90)" fill="#2e7d32"/>
    <path id="Path_42" data-name="Path 42" d="M2597.775,2655.719c-9.693,16.586-14.647,28-15.94,55.79.646,27.787.2,513.425.2,513.425s-2.766,54.831,49.046,86.327c46.407,26.838,420.848,241.473,435.863,250.688s32.256,19.236,58.884,19.526c.116-10.791-2.041-631.573-2.041-631.573l-267.631-148.539L2634.932,2677.8S2600.415,2650.741,2597.775,2655.719Z" transform="translate(-2118 -2158)" fill="#030c03"/>
    <path id="Path_43" data-name="Path 43" d="M3125.832,3471.854l547.365-431.19.092,183.723s4.356,38.422-31.823,74.4c-13.8,16.854-452.184,263.928-452.184,263.928s-20.854,21.422-63.45,20.3C3125.636,3563.51,3125.832,3471.854,3125.832,3471.854Z" transform="translate(-2118 -2158)" fill="#7cb27e"/>
    <path id="Union_1" data-name="Union 1" d="M-1586.453-1863.359l-.5-.277-2.47,1.369,2.47-1.369L-2118-2158l531.048,294.364.5-.277v0L-1055.9-2158l-530.548,294.087v.554l1.971,1.093-1.971-1.093v0Zm0,0v-.554l-.5.277Z" transform="translate(2595.952 2655.083)" fill="none" stroke="#fff" stroke-width="8"/>
    <g id="Border" transform="translate(1562 172) rotate(90)" fill="none">
      <path d="M896.974,0a100,100,0,0,1,86.633,50.053l260.6,452a100,100,0,0,1,0,99.895l-260.6,452A100,100,0,0,1,896.974,1104H376.026a100,100,0,0,1-86.633-50.053l-260.6-452a100,100,0,0,1,0-99.895l260.6-452A100,100,0,0,1,376.026,0Z" stroke="none"/>
      <path d="M 376.0256958007813 8.0001220703125 C 343.2393188476563 8.0001220703125 312.6991577148438 25.644775390625 296.323486328125 54.04833984375 L 35.727294921875 506.0484008789063 C 19.3858642578125 534.3922119140625 19.3858642578125 569.6075439453125 35.727294921875 597.9515380859375 L 296.3231811523438 1049.951416015625 C 312.698974609375 1078.355224609375 343.2391967773438 1096 376.0255126953125 1096 L 896.97412109375 1096 C 929.760498046875 1096 960.3006591796875 1078.355224609375 976.676513671875 1049.951416015625 L 1237.2724609375 597.9515380859375 C 1253.614135742188 569.6075439453125 1253.614135742188 534.3923950195313 1237.2724609375 506.0484008789063 L 976.676513671875 54.04833984375 C 960.3006591796875 25.644775390625 929.760498046875 8.0001220703125 896.97412109375 8.0001220703125 L 376.0256958007813 8.0001220703125 M 376.0256958007813 0.0001220703125 L 896.97412109375 0.0001220703125 C 932.7225341796875 0.0001220703125 965.7518310546875 19.0828857421875 983.607177734375 50.0526123046875 L 1244.203125 502.0525512695313 C 1262.026123046875 532.9658813476563 1262.026123046875 571.0340576171875 1244.203125 601.9473876953125 L 983.607177734375 1053.947265625 C 965.7518310546875 1084.917114257813 932.72265625 1104 896.97412109375 1104 L 376.0255126953125 1104 C 340.27734375 1104 307.2478637695313 1084.917114257813 289.3925170898438 1053.947265625 L 28.796630859375 601.9473876953125 C 10.973876953125 571.0338745117188 10.973876953125 532.9658813476563 28.796630859375 502.0525512695313 L 289.392822265625 50.0526123046875 C 307.2479858398438 19.0828857421875 340.27734375 0.0001220703125 376.0256958007813 0.0001220703125 Z" stroke="none" fill="#fff"/>
    </g>
    <text id="RUMA" transform="translate(396 1868)" fill="#1b5e20" font-size="400" font-family="AzonixRegular, Azonix"><tspan x="0" y="0">RUMA</tspan></text>
  </g>
</svg>
